<svg width="25" height="24" viewBox="0 0 25 24" fill="none" xmlns="http://www.w3.org/2000/svg">
<mask id="mask0_101_3003" style="mask-type:alpha" maskUnits="userSpaceOnUse" x="0" y="0" width="25" height="24">
<rect x="0.5" width="24" height="24" fill="#D9D9D9"/>
</mask>
<g mask="url(#mask0_101_3003)">
<path d="M4.5 21V11.625L2.7 13L1.5 11.4L12.5 3L23.5 11.4L22.3 12.975L20.5 11.625V21H4.5ZM8.5 15C8.21667 15 7.97917 14.9042 7.7875 14.7125C7.59583 14.5208 7.5 14.2833 7.5 14C7.5 13.7167 7.59583 13.4792 7.7875 13.2875C7.97917 13.0958 8.21667 13 8.5 13C8.78333 13 9.02083 13.0958 9.2125 13.2875C9.40417 13.4792 9.5 13.7167 9.5 14C9.5 14.2833 9.40417 14.5208 9.2125 14.7125C9.02083 14.9042 8.78333 15 8.5 15ZM12.5 15C12.2167 15 11.9792 14.9042 11.7875 14.7125C11.5958 14.5208 11.5 14.2833 11.5 14C11.5 13.7167 11.5958 13.4792 11.7875 13.2875C11.9792 13.0958 12.2167 13 12.5 13C12.7833 13 13.0208 13.0958 13.2125 13.2875C13.4042 13.4792 13.5 13.7167 13.5 14C13.5 14.2833 13.4042 14.5208 13.2125 14.7125C13.0208 14.9042 12.7833 15 12.5 15ZM16.5 15C16.2167 15 15.9792 14.9042 15.7875 14.7125C15.5958 14.5208 15.5 14.2833 15.5 14C15.5 13.7167 15.5958 13.4792 15.7875 13.2875C15.9792 13.0958 16.2167 13 16.5 13C16.7833 13 17.0208 13.0958 17.2125 13.2875C17.4042 13.4792 17.5 13.7167 17.5 14C17.5 14.2833 17.4042 14.5208 17.2125 14.7125C17.0208 14.9042 16.7833 15 16.5 15Z" fill="white"/>
</g>
</svg>
