<svg width="40" height="40" viewBox="0 0 40 40" fill="none" xmlns="http://www.w3.org/2000/svg">
<mask id="mask0_24_826" style="mask-type:alpha" maskUnits="userSpaceOnUse" x="0" y="0" width="40" height="40">
<rect width="40" height="40" fill="#D9D9D9"/>
</mask>
<g mask="url(#mask0_24_826)">
<path d="M15.8333 27.4999L27.5 19.9999L15.8333 12.4999V27.4999ZM20 36.6666C17.6944 36.6666 15.5278 36.2291 13.5 35.3541C11.4722 34.4791 9.70833 33.2916 8.20833 31.7916C6.70833 30.2916 5.52083 28.5277 4.64583 26.4999C3.77083 24.4721 3.33333 22.3055 3.33333 19.9999C3.33333 17.6944 3.77083 15.5277 4.64583 13.4999C5.52083 11.4721 6.70833 9.70825 8.20833 8.20825C9.70833 6.70825 11.4722 5.52075 13.5 4.64575C15.5278 3.77075 17.6944 3.33325 20 3.33325C22.3055 3.33325 24.4722 3.77075 26.5 4.64575C28.5278 5.52075 30.2917 6.70825 31.7917 8.20825C33.2917 9.70825 34.4792 11.4721 35.3542 13.4999C36.2292 15.5277 36.6667 17.6944 36.6667 19.9999C36.6667 22.3055 36.2292 24.4721 35.3542 26.4999C34.4792 28.5277 33.2917 30.2916 31.7917 31.7916C30.2917 33.2916 28.5278 34.4791 26.5 35.3541C24.4722 36.2291 22.3055 36.6666 20 36.6666Z" fill="white" fill-opacity="0.4"/>
</g>
</svg>
