<svg width="108" height="32" viewBox="0 0 108 32" fill="none" xmlns="http://www.w3.org/2000/svg">
<g clip-path="url(#clip0_584_354)">
<path d="M16.9067 32C25.8758 32 33.1467 24.8366 33.1467 16C33.1467 7.16344 25.8758 0 16.9067 0C7.93758 0 0.666687 7.16344 0.666687 16C0.666687 24.8366 7.93758 32 16.9067 32Z" fill="#FF0000"/>
<path d="M16.9067 25.6C22.2882 25.6 26.6507 21.302 26.6507 16C26.6507 10.6981 22.2882 6.40002 16.9067 6.40002C11.5252 6.40002 7.16269 10.6981 7.16269 16C7.16269 21.302 11.5252 25.6 16.9067 25.6Z" fill="#FF0000" stroke="white" stroke-width="1.2"/>
<path d="M13.6587 20.7267L22.0947 16.0013L13.6587 11.2733V20.7267ZM50.5774 12.856C49.8054 16.66 49.2187 21.304 48.9107 23.2213H48.6934C48.444 21.2453 47.8574 16.632 47.0574 12.888L45.08 3.56935H39.0534V28.7027H42.7907V7.98268L43.16 9.91735L46.96 28.6987H50.6987L54.436 9.91735L54.836 7.97201V28.7013H58.5747V3.56801H52.4907L50.5774 12.856ZM68.68 24.928C68.3387 25.6173 67.6 26.096 66.856 26.096C65.992 26.096 65.6507 25.4373 65.6507 23.8213V10.3387H61.3867V24.0587C61.3867 27.4453 62.528 29 65.064 29C66.792 29 68.1814 28.2507 69.1414 26.4547H69.2347L69.604 28.7H72.94V10.34H68.676V24.9267L68.68 24.928ZM81.1894 17.5867C79.7987 16.5973 78.9347 15.9387 78.9347 14.5013C78.9347 13.484 79.428 12.9147 80.6014 12.9147C81.808 12.9147 82.2094 13.7213 82.2374 16.48L85.8227 16.332C86.1 11.8707 84.5854 10.012 80.6627 10.012C77.0187 10.012 75.2254 11.5987 75.2254 14.8627C75.2254 17.828 76.7094 19.176 79.1187 20.9453C81.1894 22.504 82.3947 23.372 82.3947 24.6307C82.3947 25.5907 81.776 26.248 80.6947 26.248C79.428 26.248 78.6854 25.0787 78.8747 23.0413L75.2614 23.1C74.7027 26.9027 76.2827 29.12 80.4814 29.12C84.1587 29.12 86.0747 27.472 86.0747 24.1787C86.0707 21.1827 84.528 19.9827 81.1894 17.5867ZM92.496 10.3387H88.4174V28.6987H92.4974V10.34L92.496 10.3387ZM90.4867 3.08801C88.9134 3.08801 88.1694 3.65735 88.1694 5.63601C88.1694 7.67335 88.908 8.18135 90.488 8.18135C92.0947 8.18135 92.8054 7.67068 92.8054 5.63601C92.8054 3.75068 92.0947 3.08801 90.4867 3.08801ZM106.211 22.08L102.473 21.9C102.473 25.1347 102.104 26.1827 100.839 26.1827C99.572 26.1827 99.3547 25.0133 99.3547 21.2093V17.6493C99.3547 13.9627 99.604 12.7973 100.871 12.7973C102.044 12.7973 102.353 13.904 102.353 17.3213L106.057 17.084C106.307 14.2387 105.933 12.2907 104.792 11.184C103.956 10.3733 102.691 9.98801 100.931 9.98801C96.792 9.98801 95.092 12.1453 95.092 18.1933V20.7693C95.092 27 96.5427 29.0067 100.777 29.0067C102.569 29.0067 103.804 28.6467 104.639 27.868C105.841 26.7827 106.303 24.928 106.211 22.08Z" fill="white"/>
</g>
<defs>
<clipPath id="clip0_584_354">
<rect width="106.667" height="32" fill="white" transform="translate(0.666687)"/>
</clipPath>
</defs>
</svg>
