<svg width="32" height="32" viewBox="0 0 32 32" fill="none" xmlns="http://www.w3.org/2000/svg">
<mask id="mask0_8_1332" style="mask-type:alpha" maskUnits="userSpaceOnUse" x="0" y="0" width="32" height="32">
<rect width="32" height="32" fill="#D9D9D9"/>
</mask>
<g mask="url(#mask0_8_1332)">
<path d="M26.2565 25.9999H19.6411C19.6411 25.6666 19.6298 25.3333 19.6072 24.9999C19.5845 24.6666 19.5505 24.3333 19.5052 24H26.2565C26.3762 24 26.4745 23.9615 26.5514 23.8846C26.6283 23.8076 26.6668 23.7093 26.6668 23.5897V8.41027C26.6668 8.2906 26.6283 8.1923 26.5514 8.11537C26.4745 8.03843 26.3762 7.99997 26.2565 7.99997H5.74376C5.6241 7.99997 5.5258 8.03843 5.44886 8.11537C5.37193 8.1923 5.33346 8.2906 5.33346 8.41027V9.8282C5.00013 9.78289 4.66681 9.74891 4.3335 9.72627C4.00016 9.70362 3.66683 9.6923 3.3335 9.6923V8.41027C3.3335 7.74745 3.56951 7.18003 4.04153 6.70803C4.51353 6.23601 5.08094 6 5.74376 6H26.2565C26.9193 6 27.4867 6.23601 27.9587 6.70803C28.4308 7.18003 28.6668 7.74745 28.6668 8.41027V23.5897C28.6668 24.2525 28.4308 24.8199 27.9587 25.2919C27.4867 25.7639 26.9193 25.9999 26.2565 25.9999ZM3.3335 25.9999V22.7179C4.23947 22.7179 5.01297 23.0384 5.654 23.6794C6.295 24.3205 6.6155 25.094 6.6155 25.9999H3.3335ZM9.5386 25.9999C9.5386 24.2837 8.93347 22.8247 7.72323 21.623C6.51298 20.4213 5.04974 19.8119 3.3335 19.7948V17.7949C5.61725 17.7949 7.5557 18.591 9.14883 20.1831C10.742 21.7753 11.5386 23.7142 11.5386 25.9999H9.5386ZM14.7181 25.9999C14.7181 24.4204 14.4185 22.9409 13.8194 21.5614C13.2202 20.182 12.4074 18.979 11.3809 17.9525C10.3544 16.926 9.15144 16.1132 7.772 15.5141C6.39253 14.9149 4.91303 14.6153 3.3335 14.6153V12.6154C5.18478 12.6154 6.92094 12.9649 8.54196 13.664C10.163 14.3631 11.5814 15.3205 12.7972 16.5363C14.0129 17.752 14.9704 19.1704 15.6694 20.7915C16.3685 22.4125 16.718 24.1486 16.718 25.9999H14.7181Z" fill="white"/>
</g>
</svg>
