<svg width="32" height="32" viewBox="0 0 32 32" fill="none" xmlns="http://www.w3.org/2000/svg">
<mask id="mask0_49_2782" style="mask-type:alpha" maskUnits="userSpaceOnUse" x="0" y="0" width="32" height="32">
<rect width="32" height="32" fill="#D9D9D9"/>
</mask>
<g mask="url(#mask0_49_2782)">
<path d="M17.0167 16L12.9167 20.1L14.6667 21.8833L20.55 16L14.6667 10.1167L12.9167 11.9L17.0167 16ZM16 29C14.2021 29 12.5125 28.6582 10.9312 27.9746C9.34986 27.2909 7.97433 26.3632 6.8046 25.1912C5.63487 24.0193 4.70833 22.6435 4.025 21.0638C3.34167 19.484 3 17.7961 3 16C3 14.2021 3.34181 12.5125 4.02543 10.9312C4.70906 9.34986 5.63683 7.97433 6.80877 6.8046C7.9807 5.63487 9.35652 4.70833 10.9362 4.025C12.516 3.34167 14.2039 3 16 3C17.7979 3 19.4875 3.34181 21.0688 4.02543C22.6501 4.70906 24.0257 5.63683 25.1954 6.80877C26.3651 7.9807 27.2917 9.35652 27.975 10.9362C28.6583 12.516 29 14.2039 29 16C29 17.7979 28.6582 19.4875 27.9746 21.0688C27.2909 22.6501 26.3632 24.0257 25.1912 25.1954C24.0193 26.3651 22.6435 27.2917 21.0638 27.975C19.484 28.6583 17.7961 29 16 29Z" fill="white" fill-opacity="0.4"/>
</g>
</svg>
